<svg xmlns="http://www.w3.org/2000/svg" xmlns:xlink="http://www.w3.org/1999/xlink" width="242pt" height="268" viewBox="0 0 242 201"><defs><clipPath id="b"><path d="M0 0h242v201H0z"/></clipPath><clipPath id="c"><path d="M0 0h242v201H0z"/></clipPath><clipPath id="d"><path d="M0 0h242v201H0z"/></clipPath><clipPath id="e"><path d="M0 0h242v201H0z"/></clipPath><clipPath id="f"><path d="M0 0h242v201H0z"/></clipPath><clipPath id="g"><path d="M0 0h242v201H0z"/></clipPath><clipPath id="h"><path d="M0 0h242v201H0z"/></clipPath><clipPath id="i"><path d="M0 0h242v201H0z"/></clipPath><clipPath id="j"><path d="M0 0h242v201H0z"/></clipPath><clipPath id="k"><path d="M0 0h242v201H0z"/></clipPath><clipPath id="l"><path d="M0 0h242v201H0z"/></clipPath><clipPath id="m"><path d="M0 0h242v201H0z"/></clipPath><mask id="o"><g filter="url(#a)"><path fill-opacity=".102" d="M0 0h242v201H0z"/></g></mask><mask id="s"><g filter="url(#a)"><path fill-opacity=".102" d="M0 0h242v201H0z"/></g></mask><mask id="u"><g filter="url(#a)"><path fill-opacity=".102" d="M0 0h242v201H0z"/></g></mask><mask id="w"><g filter="url(#a)"><path fill-opacity=".102" d="M0 0h242v201H0z"/></g></mask><mask id="y"><g filter="url(#a)"><path fill-opacity=".051" d="M0 0h242v201H0z"/></g></mask><mask id="A"><g filter="url(#a)"><path fill-opacity=".102" d="M0 0h242v201H0z"/></g></mask><mask id="C"><g filter="url(#a)"><path fill-opacity=".102" d="M0 0h242v201H0z"/></g></mask><mask id="E"><g filter="url(#a)"><path fill-opacity=".102" d="M0 0h242v201H0z"/></g></mask><mask id="G"><g filter="url(#a)"><path fill-opacity=".102" d="M0 0h242v201H0z"/></g></mask><mask id="I"><g filter="url(#a)"><path fill-opacity=".102" d="M0 0h242v201H0z"/></g></mask><mask id="K"><g filter="url(#a)"><path fill-opacity=".102" d="M0 0h242v201H0z"/></g></mask><mask id="M"><g filter="url(#a)"><path fill-opacity=".102" d="M0 0h242v201H0z"/></g></mask><g id="n" clip-path="url(#b)"><path d="M225.938 111.04c-9.293 15.054-7.551 35.565-3.47 51.741 1.364 5.414 2.938 11.13 1.77 17.192-1.43 7.41-6.633 13.226-11.902 16.562-9.606 6.059-20.57 5.89-28.559-.445-6.898-5.473-11.437-15.02-18.48-20.2-11.774-8.667-27.942-3.413-41.98 4.688-9.93 5.719-20.856 12.996-30.036 8.875-6.453-2.89-10.48-11.055-12.36-19.937-.905-4.29-1.456-8.973-3.534-12.243-1.239-1.941-2.938-3.242-4.703-4.308-16.094-9.719-37.871-1.594-53.395-12.602C8.805 132.93 2.848 117.578.887 101.164-1.07 84.746.539 67.18 2.555 49.887c1.437-12.297 3.379-25.45 9.82-35.45C19.191 3.86 29.938-.87 39.277.133c9.34 1.004 17.45 6.93 24.438 14.176 8.734 9.054 16.613 20.617 27.918 23.539 7.703 1.988 16.113-.317 24.3-1.618 13.676-2.18 27.157-1.554 40.544-.734 12.816.781 25.71 1.754 37.656 6.274 8.449 3.199 14.933 9.859 22.82 14.187 5.14 2.824 10.942 3.184 15.73 6.95 5.899 4.636 11.005 13.195 8.641 24.015-2.25 10.293-10.457 16.129-15.387 24.117zm0 0" fill="#6c63ff"/></g><g id="r" clip-path="url(#c)"><path d="M212.492 178.078l.844 2.54-2.754 2.757-9.082 2.117-6.543-.637.422-2.324a2.803 2.803 0 012.078-2.05c2.691-.633 7.82-2.079 8.898-4.083zm0 0"/></g><g id="t" clip-path="url(#d)"><path d="M191.375 187.805l6.547.632 9.078-2.113 2.758-2.762-.227-.671-2.52 1.941s-4.644 2.535-6.964 2.117h-6.559l1.266-1.691-1.137-1.758a2.804 2.804 0 00-1.82 1.973zm0 0"/></g><g id="v" clip-path="url(#e)"><path d="M216.078 112.727s-.21 9.093-2.32 13.535l-.426 12.902s.637 11.844 1.902 14.172c1.27 2.324-2.754 21.992-2.754 21.992v3.387s-6.765 2.535-8.66-.426l1.903-25.168-.844-34.894zm0 0"/></g><g id="x" clip-path="url(#f)"><path d="M220.3 83.543l1.27 3.383 1.055 7.191a6.364 6.364 0 01-1.902 5.5c-2.532 2.535-5.91 7.824-5.91 7.824l-4.008-12.046s4.007-.633 3.379-3.383c-.63-2.75-.426-7.844-.426-7.844zm0 0"/></g><g id="z" clip-path="url(#g)"><path d="M201.535 180.594c2.711 4.265 6.926 1.847 7.672 1.367l-.305-.934-6.125-1.691a3.786 3.786 0 01-1.242 1.258zm0 0"/></g><g id="B" clip-path="url(#h)"><path d="M199.398 54.781c.57.953 1.004 1.98 1.29 3.055a8.256 8.256 0 006.421-.234 10.367 10.367 0 011.793-4.301zm0 0"/></g><g id="D" clip-path="url(#i)"><path d="M193.066 107.23l.09.016c8.856 1.824 19.969-7.418 19.969-7.418a11.282 11.282 0 01-.77-1.574c-.304-.48-.5-.754-.5-.754l-18.644 7.41-.047.738zm0 0"/></g><g id="F" clip-path="url(#j)"><path d="M201.3 68.316s4.223-.425 5.278 10.575c1.055 10.996 2.758 13.535 2.758 13.535s1.055 5.71-1.48 9.094c-2.532 3.382-7.391 10.574-7.391 10.574s-5.278 1.48-6.332-3.809l6.547-12.265s1.054-4.23-1.477-7.192c-2.535-2.96-4.45-22.629 2.098-20.512zm0 0"/></g><g id="H" clip-path="url(#k)"><path d="M197.395 75.61s-.422 6.55 1.472 10.152c1.895 3.605 1.899 8.25 0 10.793"/></g><g id="J" clip-path="url(#l)"><path d="M196.34 67.574s1.687-1.691 6.543-1.902c4.86-.215 6.969-1.692 6.969-1.692"/></g><g id="L" clip-path="url(#m)"><path d="M208.082 39.043c1.281.16 2.758.602 3.211 1.809.172.441.176.933.293 1.39.48 1.848 2.555 2.707 3.836 4.121 1.129 1.254 1.629 2.934 2.004 4.578a43.112 43.112 0 01.754 14.368c-.414 3.511-1.254 6.96-1.489 10.484-.238 3.523.196 7.23 2.118 10.191.824 1.27 1.918 2.391 2.504 3.79-1.211.984-2.883 1.124-4.442 1.18a79.207 79.207 0 01-5.45 0c-.952-.036-1.944-.099-2.769-.579a4.357 4.357 0 01-1.453-1.563c-1.039-1.757-1.297-3.89-1.25-5.937.047-2.047.367-4.086.406-6.137.02-1.117-.07-2.304-.71-3.215-.465-.66-1.168-1.105-1.77-1.64-2.254-2.008-3.035-5.223-3.11-8.246-.074-3.028.423-6.055.169-9.067-.102-1.18-.543-2.597-1.7-2.828-.367-.07-.75 0-1.101-.14-.93-.36-.84-1.672-1.106-2.633-.297-1.078-1.218-1.91-1.476-3.008-.61-2.563 2.644-5.617 4.777-6.508 2.164-.906 5.469-.691 7.754-.41zm0 0"/></g><linearGradient id="p" gradientUnits="userSpaceOnUse" x1="478.38" y1="695.72" x2="478.38" y2="33.2" gradientTransform="scale(.25052 .25094)"><stop offset="0" stop-color="gray" stop-opacity=".251"/><stop offset=".54" stop-color="gray" stop-opacity=".122"/><stop offset="1" stop-color="gray" stop-opacity=".102"/></linearGradient><linearGradient id="q" gradientUnits="userSpaceOnUse" x1="1834.21" y1="806.87" x2="1834.21" y2="194.98" gradientTransform="matrix(-.25052 0 0 .25094 663.576 -12.444)"><stop offset="0" stop-color="gray" stop-opacity=".251"/><stop offset=".54" stop-color="gray" stop-opacity=".122"/><stop offset="1" stop-color="gray" stop-opacity=".102"/></linearGradient><filter id="a" filterUnits="objectBoundingBox" x="0%" y="0%" width="100%" height="100%"><feColorMatrix in="SourceGraphic" values="0 0 0 0 1 0 0 0 0 1 0 0 0 0 1 0 0 0 1 0"/></filter></defs><use xlink:href="#n" mask="url(#o)"/><path d="M781.664 356.472s101.01-84.636 123.463-127.305c22.469-42.668 51.05-79.436 51.05-79.436" transform="matrix(.25052 0 0 .25094 -29.356 -12.444)" fill="none" stroke-width="2" stroke="#535461" stroke-miterlimit="10"/><path d="M206.855 49.066l-10.94-2.472s2.581 11.562 10.94 2.472zm0 0" fill="#6c63ff"/><path d="M190.133 37.262l6.297 9.449s-12.313.89-6.297-9.45zm21.031 2.922L201.16 38.43s6.285 9.57 10.004 1.754zm-14.804-8.442l4.93 6.461s-8.724.828-4.93-6.46zm9.972-1.289s8.52.406 9.52 1.223c1.003.816-1.27 5.597-4.508 4.816-3.239-.781-5.012-6.039-5.012-6.039zm-3.402-7.625s3.48 6.352 3.347 7.559c-.129 1.21-5.3 2.57-6.347-2.004-1.043-4.578 3-5.555 3-5.555zm0 0" fill="#6c63ff"/><path d="M212.203 24.703a2.371 2.371 0 01-1.426 4.524 2.372 2.372 0 011.426-4.524zm0 0" fill="#ffd037"/><path d="M208.496 22.262a2.371 2.371 0 01-1.426 4.523 2.377 2.377 0 01-1.547-2.976 2.368 2.368 0 012.973-1.547zm0 0" fill="#ffd037"/><path d="M87.547 160.254s4.058-12.098-21.684-26.684c0 0-26.14-7.636-23.465-33.86 0 0-30.132 22.11-9.742 50.278 20.387 28.168 37.989 22.02 37.989 22.02zm0 0" fill="#6c63ff"/><path d="M435.303 710.007s-50.131-54.203-98.188-75.14a95.544 95.544 0 01-26.118-17.404c-30.64-27.989-44.002-70.237-36.097-110.99l11.555-59.527" transform="matrix(.25052 0 0 .25094 -29.356 -12.444)" fill="none" stroke-width="2" stroke="#535461" stroke-miterlimit="10"/><path d="M48.367 8.332h142.95v166.25H48.366zm0 0" fill="url(#p)"/><path d="M50.035 10.266h139.617v162.379H50.035zm0 0" fill="#f7f7fd"/><path d="M58.465 28.57h35.297v2.813H58.465zm0 6.883h60.281v2.817H58.465zm0 0" fill="#e2e2ec"/><path d="M157.918 25.879h25.047V47.53h-25.047zm0 0" fill="#fff"/><path d="M182.832 26.004v21.402h-24.8V26.004h24.8m.25-.25h-25.3v21.902h25.3zm0 0" fill="#e2e2ec"/><path d="M132.617 25.879h25.047V47.53h-25.047zm0 0" fill="#fff"/><path d="M157.531 26.004v21.402h-24.8V26.004h24.8m.25-.25h-25.3v21.902h25.3zm0 0" fill="#e2e2ec"/><path d="M157.918 47.781h25.047V69.43h-25.047zm0 0" fill="#fff"/><path d="M182.832 47.906v21.399h-24.8V47.906h24.8m.25-.25h-25.3V69.56h25.3zm0 0" fill="#e2e2ec"/><path d="M132.617 47.781h25.047V69.43h-25.047zm0 0" fill="#fff"/><path d="M157.531 47.906v21.399h-24.8V47.906h24.8m.25-.25h-25.3V69.56h25.3zm0 0" fill="#e2e2ec"/><path d="M107.316 47.781h25.051V69.43h-25.05zm0 0" fill="#fff"/><path d="M132.242 47.906v21.399h-24.8V47.906h24.8m.25-.25h-25.304V69.56h25.304zm0 0" fill="#e2e2ec"/><path d="M82.016 47.781h25.05V69.43h-25.05zm0 0" fill="#fff"/><path d="M106.941 47.906v21.399h-24.8V47.906h24.8m.25-.25h-25.3V69.56h25.3zm0 0" fill="#e2e2ec"/><path d="M56.719 47.781h25.047V69.43H56.719zm0 0" fill="#fff"/><path d="M81.64 47.906v21.399h-24.8V47.906h24.8m.25-.25h-25.3V69.56h25.3zm0 0" fill="#e2e2ec"/><path d="M157.918 69.68h25.047v21.652h-25.047zm0 0" fill="#fff"/><path d="M182.832 69.809v21.398h-24.8V69.809h24.8m.25-.25h-25.3v21.898h25.3zm0 0" fill="#e2e2ec"/><path d="M132.617 69.68h25.047v21.652h-25.047zm0 0" fill="#fff"/><path d="M157.531 69.809v21.398h-24.8V69.809h24.8m.25-.25h-25.3v21.898h25.3zm0 0" fill="#e2e2ec"/><path d="M107.316 69.68h25.051v21.652h-25.05zm0 0" fill="#fff"/><path d="M132.242 69.809v21.398h-24.8V69.809h24.8m.25-.25h-25.304v21.898h25.304zm0 0" fill="#e2e2ec"/><path d="M82.016 69.68h25.05v21.652h-25.05zm0 0" fill="#fff"/><path d="M106.941 69.809v21.398h-24.8V69.809h24.8m.25-.25h-25.3v21.898h25.3zm0 0" fill="#e2e2ec"/><path d="M56.719 69.68h25.047v21.652H56.719zm0 0" fill="#fff"/><path d="M81.64 69.809v21.398h-24.8V69.809h24.8m.25-.25h-25.3v21.898h25.3zm0 0" fill="#e2e2ec"/><path d="M157.918 91.582h25.047v21.652h-25.047zm0 0" fill="#fff"/><path d="M182.832 91.707v21.398h-24.8V91.707h24.8m.25-.25h-25.3v21.902h25.3zm0 0" fill="#e2e2ec"/><path d="M132.617 91.582h25.047v21.652h-25.047zm0 0" fill="#fff"/><path d="M157.531 91.707v21.398h-24.8V91.707h24.8m.25-.25h-25.3v21.902h25.3zm0 0" fill="#e2e2ec"/><path d="M107.316 91.582h25.051v21.652h-25.05zm0 0" fill="#fff"/><path d="M132.242 91.707v21.398h-24.8V91.707h24.8m.25-.25h-25.304v21.902h25.304zm0 0" fill="#e2e2ec"/><path d="M82.016 91.582h25.05v21.652h-25.05zm0 0" fill="#fff"/><path d="M106.941 91.707v21.398h-24.8V91.707h24.8m.25-.25h-25.3v21.902h25.3zm0 0" fill="#e2e2ec"/><path d="M56.719 91.582h25.047v21.652H56.719zm0 0" fill="#fff"/><path d="M81.64 91.707v21.398h-24.8V91.707h24.8m.25-.25h-25.3v21.902h25.3zm0 0" fill="#e2e2ec"/><path d="M157.918 113.48h25.047v21.653h-25.047zm0 0" fill="#fff"/><path d="M182.832 113.61v21.398h-24.8v-21.399h24.8m.25-.25h-25.3v21.899h25.3zm0 0" fill="#e2e2ec"/><path d="M132.617 113.48h25.047v21.653h-25.047zm0 0" fill="#fff"/><path d="M157.531 113.61v21.398h-24.8v-21.399h24.8m.25-.25h-25.3v21.899h25.3zm0 0" fill="#e2e2ec"/><path d="M107.316 113.48h25.051v21.653h-25.05zm0 0" fill="#fff"/><path d="M132.242 113.61v21.398h-24.8v-21.399h24.8m.25-.25h-25.304v21.899h25.304zm0 0" fill="#e2e2ec"/><path d="M82.016 113.48h25.05v21.653h-25.05zm0 0" fill="#fff"/><path d="M106.941 113.61v21.398h-24.8v-21.399h24.8m.25-.25h-25.3v21.899h25.3zm0 0" fill="#e2e2ec"/><path d="M56.719 113.48h25.047v21.653H56.719zm0 0" fill="#fff"/><path d="M81.64 113.61v21.398h-24.8v-21.399h24.8m.25-.25h-25.3v21.899h25.3zm0 0" fill="#e2e2ec"/><path d="M157.918 135.383h25.047v21.652h-25.047zm0 0" fill="#fff"/><path d="M182.832 135.508v21.398h-24.8v-21.398h24.8m.25-.25h-25.3v21.902h25.3zm0 0" fill="#e2e2ec"/><path d="M132.617 135.383h25.047v21.652h-25.047zm0 0" fill="#fff"/><path d="M157.531 135.508v21.398h-24.8v-21.398h24.8m.25-.25h-25.3v21.902h25.3zm0 0" fill="#e2e2ec"/><path d="M107.316 135.383h25.051v21.652h-25.05zm0 0" fill="#fff"/><path d="M132.242 135.508v21.398h-24.8v-21.398h24.8m.25-.25h-25.304v21.902h25.304zm0 0" fill="#e2e2ec"/><path d="M82.016 135.383h25.05v21.652h-25.05zm0 0" fill="#fff"/><path d="M106.941 135.508v21.398h-24.8v-21.398h24.8m.25-.25h-25.3v21.902h25.3zm0 0" fill="#e2e2ec"/><path d="M56.719 135.383h25.047v21.652H56.719zm0 0" fill="#fff"/><path d="M81.64 135.508v21.398h-24.8v-21.398h24.8m.25-.25h-25.3v21.902h25.3zm0 0" fill="#e2e2ec"/><path d="M109.332 176.883c.715-.543 1.39-1.188 1.598-1.969a1.664 1.664 0 00-1.118-2.008c-1.023-.324-2.12.25-2.953.844-.832.594-1.78 1.254-2.867 1.133 1.125-.817 1.66-2.137 1.352-3.34a1.32 1.32 0 00-.375-.68c-.57-.5-1.602-.281-2.285.11-2.164 1.254-2.77 3.652-2.782 5.816-.218-.781-.035-1.594-.043-2.394-.004-.805-.27-1.692-1.097-2.122a3.93 3.93 0 00-1.68-.324c-.973-.031-2.059.051-2.723.633-.824.723-.609 1.938.11 2.73.719.797 1.812 1.297 2.816 1.848.766.418 1.543.906 2.004 1.57.063.086.113.18.152.282h6.106a17.694 17.694 0 003.785-2.13zm0 0" fill="#6c63ff"/><path d="M61.45 51.074c0 .79-.641 1.43-1.427 1.43a1.43 1.43 0 010-2.86c.786 0 1.426.637 1.426 1.43zm0 0" fill="#fc6681"/><path d="M65.016 51.074a1.427 1.427 0 11-2.856 0 1.428 1.428 0 112.856 0zm0 0" fill="#ffd037"/><path d="M111.875 72.277a1.427 1.427 0 11-2.855 0 1.427 1.427 0 112.855 0zm3.57 0a1.43 1.43 0 11-2.86-.001 1.43 1.43 0 012.86.001zm72.778 40.977a1.428 1.428 0 11-2.855 0 1.427 1.427 0 112.855 0zm0 0" fill="#6c63ff"/><path d="M188.938 111.59a1.43 1.43 0 01-1.426 1.43 1.43 1.43 0 010-2.86c.785 0 1.425.64 1.425 1.43zm0 0" fill="#6c63ff"/><path d="M189.652 110.16a1.427 1.427 0 11-2.855 0 1.428 1.428 0 112.855 0zm-26.64-59.086c0 .79-.64 1.43-1.43 1.43a1.43 1.43 0 010-2.86c.79 0 1.43.637 1.43 1.43zm3.566 0a1.427 1.427 0 11-2.855 0 1.428 1.428 0 112.855 0zm3.57 0c0 .79-.64 1.43-1.425 1.43a1.43 1.43 0 010-2.86c.785 0 1.425.637 1.425 1.43zm3.567 0a1.427 1.427 0 11-2.856 0 1.428 1.428 0 112.856 0zm-10.703 44.313c0 .789-.64 1.43-1.43 1.43a1.43 1.43 0 010-2.86c.79 0 1.43.64 1.43 1.43zm3.566 0a1.427 1.427 0 11-2.855 0 1.427 1.427 0 112.855 0zm3.57 0c0 .789-.64 1.43-1.425 1.43a1.43 1.43 0 010-2.86c.785 0 1.425.64 1.425 1.43zm3.567 0a1.427 1.427 0 11-2.856 0 1.427 1.427 0 112.855 0zm0 0" fill="#6c63ff"/><path d="M86.66 72.277a1.427 1.427 0 11-2.855 0 1.427 1.427 0 112.855 0zm0 0" fill="#ffd037"/><path d="M61.45 93.957c0 .79-.641 1.43-1.427 1.43a1.43 1.43 0 010-2.86 1.43 1.43 0 011.426 1.43zm0 0" fill="#fc6681"/><path d="M185.563 116.844c1.566.926 4.007 1.527 7.101-.461l-.027 4.406c.218 3.012 3.949 14.027 3.949 14.027l2.629 9.059a71.031 71.031 0 012.894 19.707c0 2.211.203 4.488.836 6.203 1.403 3.793-.55 8.68-1.394 10.496a44.1 44.1 0 01-4.344 1.227c-.133.031-.262.07-.387.117l-.02-.023s-3.948 1.566-5.698 1.351c-1.309-.16-2.13 1.473-1.106 2.676-.965.25-1.957.43-2.625.344-1.754-.215-2.633 2.808.656 3.672 3.293.859 21.946 0 21.946 0a2.656 2.656 0 001.402-2.93c1.434-.055 2.328-.098 2.328-.098s3.29-1.504 0-5.613l-.176.133-.707-2.075v-2.8s4.172-20.078 2.856-22.45c-1.317-2.375-1.973-14.46-1.973-14.46l.445-13.168c1.188-2.461 1.797-6.313 2.106-9.329.45-1.437.73-2.921.844-4.421.05-.711.093-1.454.12-2.223a14.905 14.905 0 00-.816-4.965c1.254-1.808 3.29-4.601 4.97-6.25 2.632-2.59 1.976-5.613 1.976-5.613l-1.098-7.34-2.633-12.52c.328-3.472-.394-5.472-1.195-6.605.191-1.121.371-2.242.504-3.367a43.212 43.212 0 00-.77-14.676c-.383-1.68-.898-3.398-2.074-4.672-1.332-1.441-3.492-2.32-3.984-4.207-.125-.469-.13-.969-.309-1.418-.48-1.234-2.004-1.683-3.336-1.848-2.375-.285-5.808-.5-8.09.43-1.593.653-3.789 2.45-4.66 4.375-.504.887-.734 1.817-.523 2.692.086.324.21.632.379.921a8.334 8.334 0 00-.512 2.883 8.422 8.422 0 005.367 7.813 8.455 8.455 0 01.356 1.664c-.043.754-.09 1.531-.125 2.297a3.871 3.871 0 01-.083.308 56.637 56.637 0 00-5.507 2.817c1.316 1.941-.223 10.144-.223 10.144-3.293 1.942-6.582 6.91-3.07 12.09 3.511 5.18 1.535 10.79 1.535 10.79l-.547 8.437v.015l-.113 1.692h.043l-.043.636.097.02v.687c-1.543.567-3.793 1.711-5.136 3.829a13.522 13.522 0 01-2.297 2.82 1.697 1.697 0 00.262 2.754zm26.496-22.426a8.034 8.034 0 01.777-4.242c.516.008 1.035.015 1.55.015.055.364.118.711.192 1.028.445 1.902-1.336 2.812-2.523 3.199zm0 0" fill="url(#q)"/><path d="M212.492 178.078l.844 2.54-2.754 2.757-9.082 2.117-6.543-.637.422-2.324a2.803 2.803 0 012.078-2.05c2.691-.633 7.82-2.079 8.898-4.083zm0 0" fill="#db8b8b"/><use xlink:href="#r" mask="url(#s)"/><path d="M197.078 184.21l1.266-1.69-1.266-1.958s-3.8 1.536-5.488 1.325c-1.692-.211-2.535 2.758.633 3.593 3.168.836 21.113 0 21.113 0s3.168-1.48 0-5.496l-2.754 2.114s-4.648 2.539-6.969 2.117zm0 0" fill="#2e3037"/><path d="M191.375 187.805l6.547.632 9.078-2.113 2.758-2.762-.227-.671-.312-.946-.317-.918-6.125-1.691a3.798 3.798 0 01-1.25 1.254c-1.988 1.363-5.562 2.347-7.66 2.84-.086.02-.168.047-.25.078a2.804 2.804 0 00-1.82 1.972zm0 0" fill="#db8b8b"/><use xlink:href="#t" mask="url(#u)"/><path d="M193.488 187.172l1.266-1.692-1.266-1.957s-3.8 1.536-5.488 1.325c-1.691-.211-2.535 2.761.633 3.593 3.164.836 21.113 0 21.113 0s3.168-1.48 0-5.496l-2.758 2.114s-4.644 2.539-6.965 2.117zm0 0" fill="#2e3037"/><path d="M198.766 64.508s10.136 1.058 8.656-3.172c-.41-1.2-.52-2.48-.313-3.734a10.367 10.367 0 011.793-4.301l-9.504 1.48c.57.953 1.004 1.985 1.29 3.059 1.132 4.484-1.922 6.668-1.922 6.668zm0 0" fill="#db8b8b"/><path d="M216.078 112.727s-.21 9.093-2.32 13.535l-.426 12.902s.637 11.844 1.902 14.172c1.27 2.324-2.754 21.992-2.754 21.992v3.387s-6.765 2.535-8.66-.426l1.903-25.168-.844-34.894zm0 0" fill="#474463"/><use xlink:href="#v" mask="url(#w)"/><path d="M220.3 83.543l1.27 3.383 1.055 7.191a6.364 6.364 0 01-1.902 5.5c-2.532 2.535-5.91 7.824-5.91 7.824l-4.008-12.046s4.007-.633 3.379-3.383c-.63-2.75-.426-7.844-.426-7.844zm0 0" fill="#fc6681"/><use xlink:href="#x" mask="url(#y)"/><use xlink:href="#z" mask="url(#A)"/><path d="M193.066 120.977c.211 2.96 3.801 13.746 3.801 13.746l2.531 8.875a70.672 70.672 0 012.786 19.308c0 2.164.195 4.399.808 6.078 1.688 4.653-1.687 10.996-1.687 10.996 2.953 5.29 8.015 1.692 8.015 1.692v-3.383s4.008-18.398 2.957-21.992c-1.054-3.594-1.48-13.324-1.48-13.324v-17.567a19.936 19.936 0 005.797-12.629c.05-.691.09-1.418.117-2.175.168-4.766-3.086-10.364-4.36-12.36-.304-.48-.5-.75-.5-.75l-18.644 7.406-.043.02v2.32zm0 0" fill="#474463"/><use xlink:href="#B" mask="url(#C)"/><path d="M211.86 49.7c0 4.554-3.688 8.25-8.235 8.25-4.55 0-8.234-3.696-8.234-8.25 0-4.555 3.683-8.247 8.234-8.247 4.547 0 8.234 3.692 8.234 8.246zm0 0" fill="#db8b8b"/><use xlink:href="#D" mask="url(#E)"/><path d="M195.39 64.293s11.825-7.191 15.622-4.23l5.281 6.777s3.379 1.055 2.754 7.824l2.523 12.262-7.601 1.906s-4.434 4.23-.844 10.363c0 0-11.191 9.305-20.059 7.403l.633-9.942s1.903-5.496-1.476-10.574c-3.38-5.074-.211-9.937 2.957-11.844 0 0 1.472-8.039.21-9.945zm0 0" fill="#fc6681"/><path d="M194.754 107.441s-4.434.844-6.547 4.23a13.217 13.217 0 01-2.207 2.763 1.676 1.676 0 00.25 2.672c1.676 1.003 4.41 1.628 7.86-1.211 5.925-4.86.644-8.454.644-8.454zm0 0" fill="#db8b8b"/><use xlink:href="#F" mask="url(#G)"/><path d="M200.871 67.68s4.223-.422 5.277 10.574c1.055 11 2.754 13.535 2.754 13.535s1.055 5.711-1.476 9.094c-2.531 3.383-7.39 10.574-7.39 10.574s-5.278 1.48-6.333-3.805l6.547-12.265s1.055-4.23-1.48-7.192c-2.532-2.96-4.438-22.629 2.101-20.515zm0 0" fill="#fc6681"/><use xlink:href="#H" mask="url(#I)"/><use xlink:href="#J" mask="url(#K)"/><use xlink:href="#L" mask="url(#M)"/><path d="M208.293 38.621c1.281.16 2.754.602 3.21 1.809.173.441.177.933.294 1.39.48 1.848 2.555 2.707 3.836 4.121 1.129 1.254 1.629 2.934 2.004 4.579a43.112 43.112 0 01.754 14.367c-.414 3.511-1.254 6.96-1.489 10.484-.238 3.524.196 7.23 2.114 10.192.828 1.273 1.922 2.39 2.507 3.789-1.21.984-2.882 1.125-4.441 1.18a79.207 79.207 0 01-5.45 0c-.952-.036-1.945-.098-2.769-.579a4.26 4.26 0 01-1.453-1.562c-1.039-1.758-1.3-3.891-1.25-5.938.047-2.047.367-4.086.403-6.137.023-1.117-.067-2.304-.708-3.214-.464-.66-1.167-1.106-1.77-1.641-2.253-2.008-3.034-5.223-3.108-8.246-.079-3.024.421-6.055.168-9.067-.102-1.18-.543-2.597-1.7-2.828-.367-.07-.754 0-1.101-.14-.93-.36-.84-1.672-1.106-2.633-.3-1.078-1.218-1.91-1.476-3.008-.61-2.562 2.644-5.613 4.773-6.508 2.168-.91 5.473-.691 7.758-.41zm0 0" fill="#472727"/></svg>