<svg xmlns="http://www.w3.org/2000/svg" xlink="http://www.w3.org/1999/xlink" width="0" height="0" style="display:none;"><symbol viewBox="0 0 24 24" id="file-forbid-line"><path fill="none" d="M0 0h24v24H0z"/><path d="M11.29 20c.215.722.543 1.396.965 2H3.993A1 1 0 0 1 3 21.008V2.992C3 2.444 3.447 2 3.999 2H16l5 5v4.674a6.95 6.95 0 0 0-2-.603V8h-4V4H5v16h6.29zM18 23a5 5 0 1 1 0-10 5 5 0 0 1 0 10zm-1.293-2.292a3 3 0 0 0 4.001-4.001l-4.001 4zm-1.415-1.415l4.001-4a3 3 0 0 0-4.001 4.001z"/></symbol><symbol viewBox="0 0 24 24" id="file-info-line"><path fill="none" d="M0 0h24v24H0z"/><path d="M15 4H5v16h14V8h-4V4zM3 2.992C3 2.444 3.447 2 3.999 2H16l5 5v13.993A1 1 0 0 1 20.007 22H3.993A1 1 0 0 1 3 21.008V2.992zM11 11h2v6h-2v-6zm0-4h2v2h-2V7z"/></symbol><symbol viewBox="0 0 24 24" id="file-warning-line"><path fill="none" d="M0 0h24v24H0z"/><path d="M15 4H5v16h14V8h-4V4zM3 2.992C3 2.444 3.447 2 3.999 2H16l5 5v13.993A1 1 0 0 1 20.007 22H3.993A1 1 0 0 1 3 21.008V2.992zM11 15h2v2h-2v-2zm0-8h2v6h-2V7z"/></symbol><symbol viewBox="0 0 24 24" id="checkbox-circle-line"><path fill="none" d="M0 0h24v24H0z"/><path d="M12 22C6.477 22 2 17.523 2 12S6.477 2 12 2s10 4.477 10 10-4.477 10-10 10zm0-2a8 8 0 1 0 0-16 8 8 0 0 0 0 16zm-.997-4L6.76 11.757l1.414-1.414 2.829 2.829 5.656-5.657 1.415 1.414L11.003 16z"/></symbol></svg>